<svg xmlns="http://www.w3.org/2000/svg" width="960" height="540" viewBox="0 0 960 540">
  <defs>
    <linearGradient id="bg" x1="0" x2="1" y1="0" y2="1">
      <stop offset="0%" stop-color="#102a43"/>
      <stop offset="100%" stop-color="#243b53"/>
    </linearGradient>
  </defs>
  <rect width="960" height="540" fill="url(#bg)"/>
  <rect x="40" y="40" width="880" height="460" rx="18" fill="rgba(12,29,48,0.8)" stroke="#5bc0be" stroke-width="2"/>
  <text x="80" y="90" fill="#f0f4f8" font-size="28" font-family="'Fira Sans', sans-serif">BioNeuron Streamlit Dashboard</text>
  <rect x="80" y="120" width="500" height="220" rx="12" fill="#172b4d" opacity="0.9"/>
  <text x="100" y="150" fill="#f4f4f9" font-size="20" font-family="'Fira Sans', sans-serif">即時輸出紀錄</text>
  <text x="100" y="182" fill="#9fb3c8" font-size="16" font-family="'Fira Code', monospace">Input    Layer2 Output         Novelty</text>
  <text x="100" y="212" fill="#d9e2ec" font-size="15" font-family="'Fira Code', monospace">0.5,0.2 [0.71, 0.68, 0.65]   0.31</text>
  <text x="100" y="242" fill="#d9e2ec" font-size="15" font-family="'Fira Code', monospace">0.6,0.4 [0.73, 0.70, 0.69]   0.28</text>
  <rect x="80" y="360" width="500" height="120" rx="12" fill="#172b4d" opacity="0.9"/>
  <text x="100" y="390" fill="#f4f4f9" font-size="20" font-family="'Fira Sans', sans-serif">新穎性趨勢</text>
  <polyline points="120,450 200,420 280,430 360,395 440,410 520,380" fill="none" stroke="#5bc0be" stroke-width="4"/>
  <circle cx="120" cy="450" r="6" fill="#5bc0be"/>
  <circle cx="520" cy="380" r="6" fill="#5bc0be"/>
  <rect x="610" y="120" width="280" height="160" rx="12" fill="#172b4d" opacity="0.9"/>
  <text x="630" y="150" fill="#f4f4f9" font-size="20" font-family="'Fira Sans', sans-serif">安全模組掃描進度</text>
  <text x="630" y="190" fill="#9fb3c8" font-size="16" font-family="'Fira Sans', sans-serif">SQL Injection Module</text>
  <rect x="630" y="200" width="240" height="18" fill="#243b53" rx="9"/>
  <rect x="630" y="200" width="190" height="18" fill="#5bc0be" rx="9"/>
  <text x="630" y="230" fill="#9fb3c8" font-size="16" font-family="'Fira Sans', sans-serif">IDOR Detection Module</text>
  <rect x="630" y="240" width="240" height="18" fill="#243b53" rx="9"/>
  <rect x="630" y="240" width="150" height="18" fill="#5bc0be" rx="9"/>
  <text x="630" y="270" fill="#9fb3c8" font-size="16" font-family="'Fira Sans', sans-serif">Enhanced Auth Module</text>
  <rect x="630" y="280" width="240" height="18" fill="#243b53" rx="9"/>
  <rect x="630" y="280" width="80" height="18" fill="#5bc0be" rx="9"/>
  <rect x="610" y="310" width="280" height="170" rx="12" fill="#172b4d" opacity="0.9"/>
  <text x="630" y="340" fill="#f4f4f9" font-size="20" font-family="'Fira Sans', sans-serif">模型狀態</text>
  <text x="630" y="375" fill="#d9e2ec" font-size="16" font-family="'Fira Sans', sans-serif">平均新穎性: 0.284</text>
  <text x="630" y="405" fill="#9fb3c8" font-size="14" font-family="'Fira Code', monospace">Neuron 1 Weights: 0.61, 0.48, 0.52</text>
  <text x="630" y="430" fill="#9fb3c8" font-size="14" font-family="'Fira Code', monospace">Neuron 2 Weights: 0.58, 0.51, 0.55</text>
  <text x="630" y="455" fill="#9fb3c8" font-size="14" font-family="'Fira Code', monospace">Neuron 3 Weights: 0.62, 0.49, 0.57</text>
</svg>
